<svg width="63" height="88" viewBox="0 0 63 88" fill="none" xmlns="http://www.w3.org/2000/svg">
<path d="M39.02 5.97088C36.55 4.87088 32.05 3.09088 29.02 2.02088C25.73 0.860881 24.42 0.0508922 25.77 0.000892202C27.01 -0.0391078 31.51 1.27089 35.77 2.92089C40.03 4.56089 46 7.49089 49.02 9.43089C52.05 11.3709 55.34 13.9709 56.33 15.2009C57.33 16.4209 58.79 18.8909 59.58 20.6809C60.37 22.4709 61.25 25.8409 61.53 28.1809C61.81 30.5209 62.11 34.4609 62.2 36.9309C62.3 39.9009 61.54 43.1309 59.95 46.4309C58.63 49.1809 55.85 53.1209 53.78 55.1809C51.71 57.2409 47.43 60.5809 44.27 62.5909C41.11 64.6109 34.92 67.4909 30.52 69.0009C26.12 70.5209 18.92 72.4909 14.52 73.4009C10.12 74.3009 6.07004 75.4509 5.52004 75.9509C4.97004 76.4509 4.80005 77.4409 5.15005 78.1409C5.49005 78.8509 11.34 81.1909 18.15 83.3509C24.95 85.5009 29.85 87.4309 29.02 87.6309C28.2 87.8309 23.02 86.6109 17.52 84.9309C12.02 83.2409 5.82004 81.5409 3.75004 81.1509C1.68004 80.7509 -0.00995585 80.0909 4.41513e-05 79.6809C0.0100442 79.2709 3.73004 74.4409 8.27004 68.9609C12.81 63.4709 16.65 59.0809 16.81 59.2109C16.97 59.3309 15.74 61.5709 14.06 64.1809C12.39 66.7909 11.02 69.3809 11.02 69.9309C11.02 70.4809 11.81 70.9409 12.77 70.9509C13.73 70.9609 19.25 69.5609 25.02 67.8509C30.8 66.1409 37.21 63.8809 39.27 62.8409C41.33 61.7909 45.11 59.0209 47.66 56.6809C50.21 54.3409 53.2701 50.8609 54.46 48.9309C55.64 47.0009 57.49 42.8609 58.57 39.7109C60.4501 34.2009 60.46 33.8109 58.78 28.7109C57.82 25.8109 55.12 20.5709 52.78 17.0709C50.44 13.5709 47.4 10.0909 46.02 9.35088C44.65 8.60088 41.5 7.08088 39.02 5.97088Z" fill="white"/>
</svg>
