<svg width="312" height="89" viewBox="0 0 312 89" fill="none" xmlns="http://www.w3.org/2000/svg">
<path d="M34.3815 1.46217C36.0315 1.46217 37.6315 1.01217 37.9415 0.46217C38.3115 -0.19783 39.2615 -0.147833 40.6915 0.592167C41.9415 1.23217 44.4915 1.45217 46.6315 1.09217C49.5815 0.592167 50.3815 0.78217 50.3815 1.96217C50.3815 2.98217 48.8515 3.71217 40.8815 4.98217L40.6315 40.7222C40.4715 64.0522 40.7315 76.4622 41.3815 76.4622C41.9315 76.4622 43.6215 75.8022 45.1315 74.9922C46.6415 74.1822 48.2315 73.8522 48.6615 74.2422C49.0915 74.6422 49.4415 75.1822 49.4415 75.4622C49.4515 75.7422 46.8515 77.1622 43.6715 78.6322C40.4815 80.1122 36.1915 81.5722 34.1315 81.8822C31.9115 82.2222 30.3815 82.0522 30.3815 81.4622C30.3815 80.8822 25.8715 81.4622 19.6315 82.8522C13.7215 84.1722 8.03145 85.4022 6.99145 85.6022C5.19145 85.9522 5.10144 84.8122 4.92144 58.4622C4.75144 33.6222 4.51145 30.0422 2.44145 21.4622C1.18145 16.2422 0.0914561 10.6122 0.0114561 8.96217C-0.0785439 6.94217 0.361458 5.96217 1.34146 5.96217C2.30146 5.96217 3.39145 8.32217 4.58145 12.9622C5.57145 16.8122 7.09145 26.0422 7.96145 33.4622C9.13145 43.3922 9.40145 51.5322 8.97145 64.2122C8.64145 73.7022 8.49145 81.4622 8.63145 81.4722C8.77145 81.4722 13.3815 80.8022 18.8815 79.9722C24.3815 79.1522 29.6715 78.4722 30.6315 78.4722C31.5915 78.4622 32.1615 78.9122 31.8815 79.4622C31.5515 80.1322 32.3815 80.1322 37.3815 78.4622V4.46217L34.3615 3.71217C32.6915 3.30217 31.3415 2.62217 31.3615 2.21217C31.3715 1.80217 32.7315 1.46217 34.3815 1.46217Z" fill="white"/>
<path d="M244.181 21.6222C243.471 12.0822 243.251 3.87217 243.691 3.37217C244.121 2.87217 244.981 2.46217 245.591 2.46217C246.201 2.46217 246.971 4.04217 247.291 5.98217C247.611 7.91217 248.561 9.75217 249.381 10.0722C250.201 10.3922 256.361 10.9422 275.251 11.9622L275.561 7.54217C275.741 5.07217 276.431 2.97217 277.131 2.79217C277.871 2.59217 278.691 3.91217 279.131 5.98217C279.541 7.91217 280.561 9.76217 281.381 10.0922C282.201 10.4222 289.291 10.9722 297.131 11.3222C307.531 11.7922 311.391 12.3022 311.381 13.2122C311.381 14.0922 309.411 14.4322 304.631 14.3722C300.921 14.3322 293.831 13.9622 288.881 13.5522C283.931 13.1522 279.741 12.8522 279.571 12.8922C279.391 12.9322 279.551 17.9122 280.581 34.9622L286.981 34.2122C291.901 33.6322 293.301 33.7522 293.061 34.7122C292.881 35.4022 290.331 36.4122 287.401 36.9622C284.221 37.5622 281.871 38.5722 281.581 39.4622C281.321 40.2922 281.911 49.7422 282.901 60.4622C283.881 71.1922 284.371 80.8622 283.241 83.9622L281.791 81.9622C280.861 80.6722 280.351 77.4722 280.341 72.9622C280.341 69.1122 279.681 59.8922 278.881 52.4622C278.081 45.0422 277.081 33.5022 275.881 14.7022L261.881 13.7822C254.181 13.2722 247.741 12.8822 247.571 12.9122C247.391 12.9422 247.551 17.9122 248.581 34.9622L254.981 34.2122C259.901 33.6322 261.301 33.7522 261.061 34.7122C260.881 35.4022 258.331 36.4122 255.401 36.9622C252.221 37.5622 249.871 38.5722 249.581 39.4622C249.321 40.2922 249.911 49.7422 250.901 60.4622C251.881 71.1822 252.371 80.8622 251.241 83.9622L249.791 81.9622C248.881 80.6922 248.361 77.5722 248.371 73.4622C248.381 69.8922 247.731 60.6622 246.931 52.9622C246.121 45.2622 244.881 31.1622 244.181 21.6222Z" fill="white"/>
<path d="M82.5015 10.9622C81.8481 8.96217 81.8715 7.55884 82.5715 6.75217C83.1415 6.08217 84.0115 5.75217 84.5015 6.00217C84.9815 6.25217 85.6715 8.15217 86.0315 10.2122C86.3815 12.2722 86.9515 21.6122 87.8815 47.9622L97.8815 48.0222C103.381 48.0622 109.571 48.4022 115.381 49.4622V30.9622C115.381 19.2922 115.751 12.4622 116.381 12.4622C116.931 12.4622 117.601 13.4722 117.871 14.7122C118.131 15.9522 118.361 19.1022 118.371 21.7122C118.381 25.8122 118.691 26.5322 120.631 26.9822C121.871 27.2622 127.151 27.7822 141.881 28.7622L142.641 23.8622C143.051 21.1622 143.381 17.1622 143.371 14.9622C143.361 12.7622 143.921 10.1022 144.611 9.06217C145.311 8.01217 146.441 7.45217 147.131 7.81217C148.011 8.27217 148.121 9.28217 147.511 11.2122C147.041 12.7222 146.361 17.2222 146.011 21.2122C145.381 28.4522 145.381 28.4622 147.881 28.4622C149.391 28.4622 150.251 28.9622 150.051 29.7122C149.871 30.4022 148.641 31.0922 147.301 31.2522C144.901 31.5322 144.871 31.6522 144.071 46.7522C143.561 56.1522 143.631 64.4422 144.251 68.4622C144.801 72.0322 145.611 76.4322 146.061 78.2322C146.751 81.0022 146.611 81.5022 145.131 81.4822C143.941 81.4722 142.991 80.1022 142.151 77.2122C141.351 74.4622 140.911 65.6822 140.881 31.7322L132.381 31.0922C127.701 30.7422 122.531 30.1522 117.881 29.1122L118.641 34.0322C119.051 36.7422 119.391 41.5522 119.391 44.7122C119.381 49.6322 119.671 50.5322 121.381 50.9622C122.481 51.2422 123.381 51.9122 123.381 52.4622C123.381 53.0122 122.481 53.4622 121.381 53.4622C119.461 53.4622 119.401 53.9622 119.881 65.4622C120.261 74.6622 120.091 77.4622 119.131 77.4722C118.321 77.4822 117.621 75.0722 117.141 70.7222C116.731 67.0022 116.391 61.6022 116.391 58.7122C116.381 55.8222 116.041 53.2622 115.631 53.0122C115.221 52.7722 111.281 52.0622 106.881 51.4322C102.481 50.8022 96.5215 50.5522 88.3815 51.4622V68.4622C88.3815 78.7922 87.9915 85.6622 87.3815 85.9622C86.8315 86.2422 86.1715 85.9022 85.9115 85.2122C85.6515 84.5222 85.2615 76.9922 85.0415 68.4622C84.8115 59.9422 84.3715 44.1922 84.0515 33.4622C83.7315 22.7422 83.0315 12.6122 82.5015 10.9622Z" fill="white"/>
<path d="M59.7415 12.9822C61.4915 10.8022 64.4915 8.45217 66.4015 7.77217C68.3215 7.09217 72.0215 6.52217 74.6315 6.50217C77.2415 6.48217 79.6215 6.86217 79.9115 7.35217C80.2015 7.83217 79.4115 8.50217 78.1615 8.83217C76.9115 9.16217 74.6415 9.44217 73.1315 9.45217C71.6215 9.45217 69.1415 10.0722 67.6315 10.8322C66.1215 11.5822 63.5915 13.7222 62.0115 15.5822C60.4315 17.4422 58.3315 20.5422 57.3515 22.4622C56.3815 24.3922 55.0215 29.7922 54.3415 34.4622C53.3515 41.2422 53.3515 45.2922 54.3415 54.4622C55.1715 62.0822 56.3915 67.8122 57.9715 71.4622C59.2815 74.4922 61.5015 78.0922 62.9015 79.4622C64.9815 81.4922 66.0615 81.8422 68.6715 81.3022C70.4315 80.9322 73.1215 80.1522 74.6315 79.5522C76.7015 78.7322 77.6515 77.4022 78.4615 74.2122C79.0615 71.8722 79.2515 67.7122 78.8915 64.9622C78.5315 62.2122 78.0715 59.2822 77.8615 58.4622C77.6615 57.6422 74.9715 54.9422 71.8915 52.4622C68.1515 49.4555 66.6215 47.6222 67.3015 46.9622C67.9748 46.2955 69.7048 46.9622 72.4915 48.9622C74.7915 50.6122 77.8515 53.5022 79.2815 55.3822C81.6515 58.5022 81.8815 59.6422 81.8815 68.0522C81.8815 76.5622 81.6815 77.5122 79.3815 79.8922C77.8815 81.4522 74.8715 82.9422 71.8815 83.6122C69.1315 84.2322 65.6415 84.4522 64.1315 84.1022C62.2115 83.6522 60.2514 81.7122 57.6715 77.7122C55.6315 74.5522 53.3415 69.9422 52.5815 67.4622C51.8215 64.9922 50.9515 58.0122 50.6415 51.9622C50.3015 45.2922 50.5615 37.8122 51.3015 32.9622C51.9815 28.5622 53.4415 23.1622 54.5415 20.9622C55.6515 18.7622 57.9915 15.1722 59.7415 12.9822Z" fill="white"/>
<path d="M159.761 19.0222C162.571 15.2122 166.651 10.8222 168.811 9.27217C170.971 7.73217 173.781 6.46217 175.061 6.46217C176.331 6.46217 177.271 6.87217 177.131 7.38217C176.991 7.89217 174.651 9.80217 171.921 11.6322C169.191 13.4622 164.531 18.1122 161.551 21.9622C158.571 25.8122 155.291 30.8722 154.261 33.2122C153.151 35.7322 152.641 38.3822 153.021 39.7122C153.381 40.9522 158.261 46.6922 163.881 52.4622C169.501 58.2422 175.061 64.8722 176.241 67.2122C177.421 69.5522 178.381 72.8122 178.381 74.4622C178.381 76.5322 177.371 78.4522 175.131 80.6422C172.161 83.5422 171.491 83.7622 167.381 83.1922C164.901 82.8422 162.211 81.8622 161.381 81.0022C160.031 79.5922 160.491 79.4422 166.131 79.4522C171.391 79.4622 172.541 79.1422 173.381 77.4622C173.931 76.3622 174.381 74.3422 174.381 72.9622C174.381 71.5922 173.191 68.5522 171.731 66.2122C170.271 63.8722 165.401 58.1422 160.891 53.4622C156.381 48.7822 151.951 43.8422 151.031 42.4622C150.111 41.0922 149.371 39.0622 149.371 37.9622C149.371 36.8622 150.561 33.7122 152.011 30.9622C153.451 28.2122 156.941 22.8422 159.761 19.0222Z" fill="white"/>
<path d="M205.501 20.2122C206.541 18.1522 208.281 15.5622 209.381 14.4622C210.481 13.3622 212.061 12.4622 212.881 12.4622C213.701 12.4622 214.391 13.0222 214.411 13.7122C214.431 14.4022 213.471 15.8622 212.271 16.9622C211.071 18.0622 209.291 20.7622 208.321 22.9622C207.341 25.1622 205.511 32.8122 204.261 39.9622C202.841 47.9822 201.971 56.9822 201.971 63.4622C201.971 69.2422 202.511 75.6522 203.171 77.7122C203.978 80.2122 205.381 81.9622 207.381 82.9622C209.031 83.7822 211.281 84.4622 212.381 84.4622C213.481 84.4622 215.841 83.7122 217.631 82.7922C219.421 81.8722 223.071 79.0622 225.751 76.5422C228.421 74.0222 231.861 69.4922 233.401 66.4622C234.931 63.4422 236.711 58.0322 237.351 54.4622C238.001 50.8922 238.251 45.9422 237.911 43.4622C237.571 40.9922 236.011 36.7122 234.451 33.9622C232.891 31.2122 229.651 26.9122 227.241 24.4122C224.841 21.9122 221.761 19.1422 220.381 18.2622C218.621 17.1322 218.181 16.3022 218.881 15.4822C219.641 14.5922 220.601 14.6622 222.881 15.7622C224.531 16.5622 228.361 19.8622 231.391 23.0922C234.421 26.3222 238.021 31.2122 239.391 33.9622C241.491 38.1922 241.881 40.3522 241.861 47.9622C241.851 55.9622 241.471 57.8522 238.431 64.9622C235.881 70.9122 233.581 74.3822 229.441 78.5222C226.381 81.5722 221.631 85.1322 218.881 86.4222C215.021 88.2322 212.851 88.6322 209.381 88.2022C206.161 87.7922 204.151 86.8222 202.311 84.7922C200.341 82.6222 199.471 80.1022 198.561 73.9622C197.611 67.5222 197.661 63.3222 198.821 52.4622C199.611 45.0422 201.011 35.5922 201.941 31.4622C202.871 27.3422 204.471 22.2722 205.501 20.2122Z" fill="white"/>
</svg>
