<svg width="279" height="92" viewBox="0 0 279 92" fill="none" xmlns="http://www.w3.org/2000/svg">
<path d="M34.3815 1.46217C36.0315 1.46217 37.6315 1.01217 37.9415 0.462167C38.3115 -0.197833 39.2615 -0.147828 40.6915 0.592172C41.9415 1.23217 44.4915 1.45217 46.6315 1.09217C49.5815 0.592172 50.3815 0.782167 50.3815 1.96217C50.3815 2.98217 48.8515 3.71217 40.8815 4.98217L40.6315 40.7222C40.4715 64.0522 40.7315 76.4622 41.3815 76.4622C41.9315 76.4622 43.6215 75.8022 45.1315 74.9922C46.6415 74.1822 48.2315 73.8522 48.6615 74.2422C49.0915 74.6422 49.4415 75.1922 49.4415 75.4622C49.4515 75.7322 46.8515 77.1622 43.6715 78.6322C40.4815 80.1122 36.1915 81.5722 34.1315 81.8822C31.9115 82.2222 30.3815 82.0522 30.3815 81.4622C30.3815 80.8822 25.8715 81.4622 19.6315 82.8522C13.7215 84.1722 8.03146 85.4022 6.99146 85.6022C5.19146 85.9522 5.10145 84.8122 4.92145 58.4622C4.75145 33.6222 4.51146 30.0422 2.44146 21.4622C1.18146 16.2422 0.0914561 10.6122 0.0114561 8.96217C-0.0785439 6.94217 0.361458 5.96217 1.34146 5.96217C2.30146 5.96217 3.39146 8.32217 4.58146 12.9622C5.57146 16.8122 7.09146 26.0322 7.96146 33.4622C9.13146 43.3922 9.40146 51.5322 8.97146 64.2122C8.64146 73.7022 8.49146 81.4622 8.63146 81.4722C8.77146 81.4722 13.3815 80.8022 18.8815 79.9722C24.3815 79.1522 29.6715 78.4722 30.6315 78.4722C31.5915 78.4622 32.1615 78.9122 31.8815 79.4622C31.5515 80.1322 32.3815 80.1322 37.3815 78.4622V4.46217L34.3615 3.71217C32.6915 3.30217 31.3415 2.62217 31.3615 2.21217C31.3715 1.80217 32.7315 1.46217 34.3815 1.46217Z" fill="white"/>
<path d="M82.5015 10.9622C81.8481 8.96217 81.8715 7.55883 82.5715 6.75216C83.1415 6.08216 84.0115 5.75216 84.5015 6.00216C84.9815 6.25216 85.6715 8.15217 86.0315 10.2122C86.3815 12.2722 86.9515 21.6122 87.8815 47.9622L97.8815 48.0222C103.381 48.0622 109.571 48.4022 115.381 49.4622V30.9622C115.381 19.2922 115.751 12.4622 116.381 12.4622C116.931 12.4622 117.601 13.4722 117.871 14.7122C118.131 15.9522 118.361 19.1022 118.371 21.7122C118.381 25.8122 118.691 26.5322 120.631 26.9822C121.871 27.2622 127.151 27.7822 141.881 28.7622L142.641 23.8622C143.051 21.1622 143.381 17.1622 143.371 14.9622C143.361 12.7622 143.921 10.1022 144.611 9.06217C145.311 8.01217 146.441 7.45217 147.131 7.81217C148.011 8.27217 148.121 9.28217 147.511 11.2122C147.041 12.7222 146.361 17.2222 146.011 21.2122C145.381 28.4522 145.381 28.4622 147.881 28.4622C149.391 28.4622 150.251 28.9622 150.051 29.7122C149.871 30.4022 148.641 31.0922 147.301 31.2522C144.901 31.5322 144.871 31.6522 144.071 46.7522C143.561 56.1522 143.631 64.4422 144.251 68.4622C144.801 72.0322 145.611 76.4322 146.061 78.2322C146.751 81.0022 146.611 81.5022 145.131 81.4822C143.941 81.4722 142.991 80.1022 142.151 77.2122C141.351 74.4622 140.911 65.6822 140.881 31.7322L132.381 31.0922C127.701 30.7422 122.531 30.1522 117.881 29.1122L118.641 34.0322C119.051 36.7422 119.391 41.5522 119.391 44.7122C119.381 49.6322 119.671 50.5322 121.381 50.9622C122.481 51.2422 123.381 51.9122 123.381 52.4622C123.381 53.0122 122.481 53.4622 121.381 53.4622C119.461 53.4622 119.401 53.9622 119.881 65.4622C120.261 74.6622 120.091 77.4622 119.131 77.4722C118.321 77.4822 117.621 75.0722 117.141 70.7222C116.731 67.0022 116.391 61.6022 116.391 58.7122C116.381 55.8222 116.041 53.2622 115.631 53.0122C115.221 52.7722 111.281 52.0622 106.881 51.4322C102.481 50.8022 96.5215 50.5522 88.3815 51.4622V68.4622C88.3815 78.7922 87.9915 85.6622 87.3815 85.9622C86.8315 86.2322 86.1715 85.9022 85.9115 85.2122C85.6515 84.5222 85.2615 76.9822 85.0415 68.4622C84.8115 59.9422 84.3715 44.1922 84.0515 33.4622C83.7315 22.7422 83.0315 12.6122 82.5015 10.9622Z" fill="white"/>
<path d="M59.7415 12.9822C61.4915 10.8022 64.4915 8.45216 66.4015 7.77216C68.3215 7.09216 72.0215 6.52216 74.6315 6.50216C77.2415 6.48216 79.6215 6.86217 79.9115 7.35217C80.2015 7.83217 79.4115 8.50216 78.1615 8.83216C76.9115 9.16216 74.6415 9.44217 73.1315 9.45217C71.6215 9.45217 69.1415 10.0722 67.6315 10.8322C66.1215 11.5822 63.5915 13.7222 62.0115 15.5822C60.4315 17.4422 58.3315 20.5322 57.3515 22.4622C56.3815 24.3922 55.0215 29.7822 54.3415 34.4622C53.3515 41.2422 53.3515 45.2922 54.3415 54.4622C55.1715 62.0822 56.3915 67.8122 57.9715 71.4622C59.2815 74.4822 61.5015 78.0922 62.9015 79.4622C64.9815 81.4922 66.0615 81.8422 68.6715 81.3022C70.4315 80.9322 73.1215 80.1522 74.6315 79.5522C76.7015 78.7322 77.6515 77.4022 78.4614 74.2122C79.0614 71.8722 79.2515 67.7122 78.8915 64.9622C78.5315 62.2122 78.0715 59.2822 77.8615 58.4622C77.6615 57.6422 74.9715 54.9422 71.8915 52.4622C68.1515 49.4555 66.6215 47.6222 67.3015 46.9622C67.9748 46.2955 69.7048 46.9622 72.4915 48.9622C74.7915 50.6122 77.8515 53.5022 79.2815 55.3822C81.6515 58.5022 81.8815 59.6422 81.8815 68.0522C81.8815 76.5622 81.6815 77.5122 79.3815 79.8922C77.8815 81.4522 74.8715 82.9422 71.8815 83.6122C69.1315 84.2322 65.6415 84.4522 64.1315 84.1022C62.2115 83.6522 60.2514 81.7122 57.6715 77.7122C55.6315 74.5522 53.3415 69.9422 52.5815 67.4622C51.8215 64.9822 50.9515 58.0122 50.6415 51.9622C50.3015 45.2922 50.5615 37.8122 51.3015 32.9622C51.9815 28.5622 53.4415 23.1622 54.5415 20.9622C55.6515 18.7622 57.9915 15.1722 59.7415 12.9822Z" fill="white"/>
<path d="M159.761 19.0222C162.571 15.2122 166.651 10.8222 168.811 9.27216C170.971 7.73216 173.781 6.46217 175.061 6.46217C176.331 6.46217 177.271 6.87216 177.131 7.38216C176.991 7.89217 174.651 9.80217 171.921 11.6322C169.191 13.4622 164.531 18.1122 161.551 21.9622C158.571 25.8122 155.291 30.8722 154.261 33.2122C153.151 35.7322 152.641 38.3822 153.021 39.7122C153.381 40.9522 158.261 46.6922 163.881 52.4622C169.501 58.2322 175.061 64.8722 176.241 67.2122C177.421 69.5522 178.381 72.8122 178.381 74.4622C178.381 76.5322 177.371 78.4522 175.131 80.6422C172.161 83.5422 171.491 83.7622 167.381 83.1922C164.901 82.8422 162.211 81.8622 161.381 81.0022C160.031 79.5922 160.491 79.4422 166.131 79.4522C171.391 79.4622 172.541 79.1422 173.381 77.4622C173.931 76.3622 174.381 74.3422 174.381 72.9622C174.381 71.5922 173.191 68.5522 171.731 66.2122C170.271 63.8722 165.401 58.1422 160.891 53.4622C156.381 48.7822 151.951 43.8422 151.031 42.4622C150.111 41.0922 149.371 39.0622 149.371 37.9622C149.371 36.8622 150.561 33.7122 152.011 30.9622C153.451 28.2122 156.941 22.8422 159.761 19.0222Z" fill="white"/>
<path d="M205.501 20.2122C206.541 18.1522 208.281 15.5622 209.381 14.4622C210.481 13.3622 212.061 12.4622 212.881 12.4622C213.701 12.4622 214.391 13.0222 214.411 13.7122C214.431 14.4022 213.471 15.8622 212.271 16.9622C211.071 18.0622 209.291 20.7622 208.321 22.9622C207.341 25.1622 205.531 32.8122 204.281 39.9622C202.931 47.7122 202.011 57.2022 201.991 63.4622C201.971 69.2322 202.501 75.6522 203.171 77.7122C203.978 80.2122 205.381 81.9622 207.381 82.9622C209.031 83.7822 211.281 84.4622 212.381 84.4622C213.481 84.4622 215.841 83.7122 217.631 82.7922C219.421 81.8722 223.071 79.0621 225.751 76.5422C228.421 74.0222 231.861 69.4822 233.401 66.4622C234.931 63.4422 236.711 58.0322 237.351 54.4622C238.001 50.8922 238.251 45.9422 237.911 43.4622C237.571 40.9922 236.011 36.7122 234.451 33.9622C232.891 31.2122 229.651 26.9122 227.241 24.4122C224.841 21.9122 221.761 19.1422 220.381 18.2622C218.621 17.1322 218.181 16.3022 218.881 15.4822C219.641 14.5922 220.601 14.6622 222.881 15.7622C224.531 16.5622 228.361 19.8622 231.391 23.0922C234.421 26.3222 238.021 31.2122 239.391 33.9622C241.491 38.1922 241.881 40.3522 241.861 47.9622C241.851 55.9622 241.471 57.8522 238.431 64.9622C235.881 70.9122 233.581 74.3822 229.441 78.5222C226.381 81.5722 221.631 85.1322 218.881 86.4222C215.021 88.2322 212.851 88.6322 209.381 88.2022C206.161 87.7922 204.151 86.8222 202.311 84.7922C200.341 82.6222 199.471 80.1022 198.561 73.9622C197.611 67.5222 197.661 63.3222 198.821 52.4622C199.611 45.0322 201.011 35.5922 201.941 31.4622C202.871 27.3422 204.471 22.2722 205.501 20.2122Z" fill="white"/>
<path d="M246.281 40.0322C248.031 30.7322 249.991 22.2922 250.631 21.2822C251.261 20.2822 252.031 19.4522 252.331 19.4322C252.631 19.4222 253.261 19.6722 253.721 19.9922C254.181 20.3222 253.881 23.1422 251.541 31.9622L258.561 50.9622C262.421 61.4122 266.211 71.2022 266.981 72.7122C267.751 74.2222 268.831 75.4622 269.381 75.4622C269.931 75.4622 270.611 75.0122 270.881 74.4622C271.151 73.9122 272.051 68.6222 272.861 62.7122C273.671 56.8022 274.351 48.2522 274.361 43.7122C274.381 37.0522 274.671 35.4622 275.881 35.4622C276.701 35.4622 277.691 36.7022 278.061 38.2122C278.431 39.7222 277.941 48.1622 276.971 56.9622C276.001 65.7622 274.561 74.4222 273.791 76.2122C273.011 78.0022 271.701 79.4622 270.881 79.4622C270.061 79.4622 268.481 79.0122 267.381 78.4622C266.281 77.9122 264.531 75.7722 263.501 73.7122C262.461 71.6522 259.271 63.6622 256.401 55.9622C253.531 48.2622 250.771 41.5122 250.271 40.9622C249.761 40.4122 249.361 40.1922 249.371 40.4622C249.381 40.7422 248.731 45.6922 247.931 51.4622C247.121 57.2322 246.111 68.6022 245.671 76.7222C245.181 85.7922 244.491 91.3422 243.881 91.1222C243.261 90.9122 242.921 84.3322 242.981 73.8722C243.071 59.3222 243.531 54.6022 246.281 40.0322Z" fill="white"/>
</svg>
