<svg width="1003" height="292" viewBox="0 0 1003 292" fill="none" xmlns="http://www.w3.org/2000/svg">
<path d="M209.859 25.8311C213.699 23.7712 215.309 23.4909 220.859 23.9209C224.589 24.211 229.7 25.4712 232.859 26.8711C235.879 28.2112 241.06 31.3607 244.359 33.8506C247.659 36.3506 252.369 40.8013 254.839 43.7412C257.299 46.6913 261.199 52.7007 263.499 57.1006C265.799 61.5006 268.919 68.9306 270.449 73.6006C273.029 81.5406 273.239 83.4907 273.619 103.101C274.009 122.761 273.859 124.931 271.389 137.101C269.739 145.231 264.839 161.721 258.319 181.101C250.209 205.19 247.879 213.331 247.849 217.601C247.829 221.74 248.319 223.661 249.839 225.351C250.949 226.591 252.869 227.87 254.109 228.19C255.429 228.54 258.01 227.97 260.359 226.811C262.56 225.72 267.29 221.721 270.859 217.911C274.429 214.111 279.209 207.641 281.459 203.551C283.719 199.451 287.189 192.051 289.169 187.101C291.149 182.151 294.379 172.931 296.349 166.601C298.309 160.281 300.359 154.541 300.889 153.851C301.419 153.161 302.309 152.831 302.859 153.101C303.409 153.372 303.859 156.411 303.869 159.851C303.869 163.291 303.139 170.371 302.249 175.601C301.359 180.831 299.389 188.931 297.879 193.601C296.359 198.281 292.549 207.281 289.399 213.601C286.249 219.931 281.129 228.881 278.019 233.511C274.909 238.131 268.539 245.96 263.859 250.9C259.179 255.85 251.759 262.781 247.359 266.301C242.959 269.831 235.759 274.891 231.359 277.551C226.96 280.211 219.989 283.81 215.859 285.561C211.74 287.3 205.659 289.37 202.359 290.15C199.06 290.93 194.45 291.581 192.109 291.591C189.769 291.591 186.059 290.701 183.859 289.601C181.659 288.501 179.219 286.591 178.429 285.351C177.649 284.111 176.709 281.53 176.339 279.601C175.939 277.471 176.319 273.56 177.319 269.601C178.229 266.031 180.679 259.5 182.769 255.101C184.859 250.701 190.719 239.901 195.789 231.101C200.859 222.301 210.049 204.98 216.219 192.601C223.349 178.321 229.019 165.351 231.759 157.101C234.139 149.951 236.919 140.281 237.959 135.601C238.989 130.931 240.119 123.501 240.469 119.101C240.849 114.421 240.639 108.721 239.989 105.351C239.239 101.541 237.849 98.4206 235.859 96.1006C234.06 94.0008 231.559 92.3511 229.609 91.9609C227.259 91.501 225.389 91.8908 222.859 93.3906C220.93 94.5306 217.919 97.8504 216.149 100.78C214.389 103.71 211.389 110.151 209.489 115.101C207.589 120.051 203.719 132.201 200.879 142.101C198.049 152.001 193.979 165.731 191.839 172.601C189.699 179.48 186.319 189.15 184.319 194.101C182.329 199.051 178.599 206.641 176.029 210.961C173.429 215.341 168.699 221.33 165.359 224.48C162.06 227.59 157.339 231.13 154.859 232.351C151.519 234.001 148.559 234.571 143.359 234.581C138.02 234.591 135.529 234.101 132.859 232.491C130.93 231.341 128.089 229.201 126.529 227.751C124.969 226.291 122.179 222.401 120.319 219.101C118.459 215.801 116.009 209.501 114.879 205.101C113.739 200.701 112.389 193.281 111.879 188.601C111.359 183.93 110.459 171.33 109.879 160.601C109.299 149.871 108.339 137.051 107.749 132.101C107.149 127.151 105.919 121.561 105.009 119.681C104.099 117.801 102.459 115.63 101.359 114.86C99.9695 113.89 98.1391 113.671 95.3594 114.15C92.3594 114.67 90.0992 116.131 86.3193 119.971C83.5493 122.791 79.6387 127.801 77.6387 131.101C75.6387 134.401 72.649 141.151 70.999 146.101C69.289 151.231 67.4791 159.621 66.7891 165.601C66.1291 171.371 65.8587 180.151 66.1787 185.101C66.5087 190.05 67.4486 197.251 68.2686 201.101C69.0885 204.951 70.869 211.251 72.209 215.101C73.549 218.951 76.9686 227.281 79.8086 233.601C82.6385 239.93 85.6284 247.35 86.4385 250.101C87.6185 254.091 87.6986 256.111 86.8086 260.101C86.1986 262.85 85.349 265.78 84.9189 266.601C84.479 267.431 82.4891 268.891 80.4893 269.851C78.4995 270.81 75.6195 271.611 74.1094 271.621C72.5995 271.631 69.3293 270.921 66.8594 270.051C64.3894 269.171 59.8894 266.811 56.8594 264.811C53.8294 262.811 47.3093 257.111 42.3594 252.131C37.4094 247.161 30.5985 239.041 27.2285 234.091C23.8585 229.151 19.0586 221.051 16.5586 216.101C14.0586 211.151 10.8386 203.951 9.38867 200.101C7.93866 196.251 5.36868 188.15 3.67871 182.101C0.858762 172.041 0.558903 169.47 0.128906 152.101C-0.181088 139.501 0.0691438 131.081 0.869141 127.101C1.51917 123.801 3.15905 117.28 4.49902 112.601C5.82905 107.921 9.0487 99.7005 11.6387 94.3105C14.4187 88.5606 17.0794 84.3305 18.1094 84.0605C19.0695 83.8107 20.7596 83.8306 21.8594 84.1006C22.9592 84.3807 24.1092 85.3907 24.4092 86.3506C24.7192 87.3106 24.4493 93.0507 23.8193 99.1006C22.8893 108.021 22.9186 110.841 24.0186 114.001C24.7486 116.151 26.4794 118.781 27.8594 119.841C29.7992 121.341 31.1395 121.6 33.8594 121.021C35.8295 120.6 39.2995 118.48 41.7793 116.19C44.2096 113.94 51.369 105.58 57.6787 97.6006C63.9987 89.6306 73.7088 78.5703 79.2588 73.0303C84.8188 67.4903 92.2894 60.8009 95.8594 58.1709C99.4294 55.5409 105.289 51.9005 108.859 50.1006C112.429 48.2907 116.929 46.7206 118.859 46.6006C120.789 46.4906 124.16 46.461 126.359 46.541C129.609 46.6511 130.999 47.3808 133.739 50.3906C135.599 52.4306 137.829 55.4506 138.699 57.1006C140.029 59.6306 140.369 66.4607 140.879 100.601C141.449 139.261 141.579 141.331 143.649 146.101C144.849 148.85 146.839 152.08 148.089 153.28C149.339 154.47 151.479 155.741 152.859 156.081C154.599 156.521 156.42 156 158.859 154.36C160.789 153.07 164.05 149.781 166.109 147.051C168.169 144.331 171.849 137.37 174.289 131.601C176.719 125.831 179.869 117.051 181.279 112.101C182.699 107.15 185.179 94.3304 186.809 83.6006C188.439 72.8806 190.649 60.7306 191.719 56.6006C192.799 52.4806 194.609 46.6306 195.759 43.6006C196.909 40.5807 199.539 35.8809 201.599 33.1709C203.669 30.4609 207.379 27.1611 209.859 25.8311ZM521.859 96.6006V116.101C521.859 127.79 522.239 135.5 522.799 135.351C523.319 135.211 526.579 131.481 530.049 127.051C533.519 122.631 540.189 113.961 553.359 96.6006H566.109C573.119 96.6006 579.049 96.9406 579.289 97.3506C579.519 97.7606 577.309 101.251 574.369 105.101C571.429 108.951 564.029 118.401 557.929 126.101C551.829 133.8 547.07 140.659 547.349 141.351C547.629 142.041 555.369 153.961 564.539 167.851C573.709 181.74 581.248 193.779 581.289 194.601C581.349 195.841 579.209 196.151 556.359 196.711L543.859 178.051C536.98 167.781 530.91 159.021 530.359 158.57C529.769 158.09 527.919 159.461 522.359 166.051L521.359 196.101H498.359L498.099 146.351L497.839 96.6006H521.859ZM899.869 96.6104L899.369 196.11L876.869 196.61V96.6104H899.869ZM954.589 96.6104C965.428 96.6104 965.889 96.6908 966.479 98.8604C966.828 100.09 974.719 121.131 984.019 145.61C993.328 170.079 1001.38 191.118 1001.91 192.36C1002.43 193.59 1002.64 195.06 1002.37 195.61C1002.08 196.18 997.299 196.601 991.119 196.591C985.2 196.581 979.82 196.251 979.159 195.841C978.499 195.441 976.459 191.06 971.289 177.11H935.589L928.239 196.11L904.869 196.61L905.489 194.36C905.831 193.115 913.71 171.177 922.999 145.61C932.709 118.891 940.629 98.5704 941.609 97.8604C942.73 97.0306 947.15 96.6104 954.589 96.6104ZM372.859 96.6006L385.609 122.11C392.619 136.14 398.589 147.621 398.859 147.621C399.135 147.609 404.769 136.129 423.359 96.6104L448.859 96.6006V196.601L426.359 196.101L425.749 139.101L406.359 177.101L390.359 177.671L380.859 158.551C375.63 148.043 371.021 139.244 370.609 139.021C370.199 138.791 369.829 151.311 369.799 166.851C369.769 182.39 369.549 195.439 369.299 195.851C369.059 196.261 363.909 196.601 346.859 196.601V96.6006H372.859ZM484.859 96.6006V196.601H461.859V96.6006H484.859ZM622.049 114.82C626.839 124.88 632.459 136.63 638.359 148.78L663.859 96.6006H688.859V196.601L666.359 196.101L665.709 138.101L646.359 177.101L630.359 177.671L610.359 138.101L609.859 196.601L588.359 196.101L587.709 190.601C587.349 187.58 587.009 168.68 586.959 148.601C586.899 128.531 587.139 108.611 587.489 104.351L588.129 96.6006L613.359 96.5508L622.049 114.82ZM806.229 96.8506C827.828 97.2706 830.989 97.551 836.359 99.501C839.659 100.701 844.569 103.131 847.279 104.891C849.979 106.661 853.949 110.131 856.099 112.601C858.239 115.081 861.089 119.351 862.429 122.101C863.769 124.851 865.599 130.701 866.499 135.101C867.829 141.661 867.929 144.451 867.039 150.601C866.449 154.731 865.158 160.581 864.188 163.601C863.208 166.63 860.569 171.801 858.319 175.101C856.069 178.4 852.009 182.77 849.289 184.82C846.579 186.87 841.209 190.131 830.359 195.61L781.859 195.601L781.979 145.991L782.089 96.3711L806.229 96.8506ZM770.859 96.6006L770.359 116.101L724.859 116.601V135.601H765.859L765.359 155.101L724.859 155.601V174.601H770.859V195.601H700.859V96.6006H770.859ZM805.359 174.101C816.209 174.541 821.609 174.21 824.359 173.65C827.109 173.09 831.159 171.371 833.359 169.831C835.849 168.081 838.41 164.951 840.12 161.561C842.65 156.561 842.88 155.16 842.85 145.101C842.82 136.551 842.4 133.211 840.96 130.101C839.95 127.901 837.819 124.89 836.239 123.4C834.649 121.92 831.559 119.941 829.359 119.001C826.869 117.941 821.539 117.121 815.229 116.821L805.1 116.341L805.359 174.101ZM953.79 125.101C953.39 124.551 952.539 125.671 951.899 127.601C951.259 129.521 948.74 136.841 946.3 143.851L941.859 156.601C958.909 156.601 963.85 156.261 963.85 155.851C963.839 155.438 961.729 148.569 959.17 140.601C956.61 132.621 954.18 125.651 953.79 125.101ZM31.9893 49.6406C32.329 49.6212 32.4284 50.3909 32.1885 51.3506C31.9585 52.3106 31.4884 54.6806 31.1484 56.6006C30.7185 59.0105 31.0386 60.9607 32.1885 62.8506C33.1083 64.3603 33.8591 65.8302 33.8594 66.1006C33.8594 66.3806 31.9492 66.3309 29.6094 66.001C26.7995 65.611 23.9993 65.9509 21.3594 67.0107C19.1595 67.8907 17.2496 68.3805 17.1094 68.1006C16.9694 67.8306 17.3094 66.2506 17.8594 64.6006C18.6493 62.2407 18.4393 60.5404 16.8594 56.6006C15.7594 53.8506 15.1994 51.6004 15.6094 51.6104C16.0204 51.6107 18.0501 52.0606 20.1094 52.6104C23.1991 53.4202 24.5195 53.2506 27.6094 51.6406C29.6692 50.5707 31.6393 49.6706 31.9893 49.6406ZM131.859 0.670898C135.98 0.140935 146.56 -0.129446 155.359 0.0605469C166.299 0.300552 172.469 0.8606 174.859 1.85059C176.789 2.6406 178.909 3.92122 179.589 4.70117C180.569 5.81098 180.569 6.46057 179.589 7.82031C178.679 9.0903 173.749 10.3511 160.859 12.6211C151.24 14.311 139.31 17.0607 134.359 18.7207C129.409 20.3907 121.089 23.9411 115.859 26.6211C110.639 29.3111 102.539 34.0511 97.8594 37.1611C93.1794 40.2711 85.1393 46.2609 79.9893 50.4609C74.8297 54.6606 69.2097 59.1199 67.4893 60.3604C65.2794 61.9503 62.9591 62.6103 59.6094 62.6104C56.0195 62.6004 54.1293 61.9905 51.8594 60.1006C49.8994 58.4606 48.6493 56.3006 48.2393 53.8506C47.8993 51.7906 48.0992 48.5306 48.6992 46.6006C49.2994 44.6705 52.1595 40.431 55.0693 37.1611C57.9793 33.8911 63.7294 28.7211 67.8594 25.6611C71.9794 22.5911 78.9594 18.2111 83.3594 15.9111C87.7594 13.6111 94.5094 10.541 98.3594 9.08105C102.209 7.63105 109.64 5.36024 114.859 4.03027C120.089 2.7103 127.73 1.19088 131.859 0.670898Z" fill="#FAFBF6"/>
</svg>
