<svg width="304" height="292" viewBox="0 0 304 292" fill="none" xmlns="http://www.w3.org/2000/svg">
<path d="M114.859 4.03074C120.089 2.71074 127.729 1.19075 131.859 0.670751C135.979 0.140751 146.559 -0.129249 155.359 0.0607509C166.299 0.300751 172.469 0.860744 174.859 1.85074C176.789 2.64074 178.909 3.92075 179.589 4.70075C180.569 5.81075 180.569 6.46075 179.589 7.82075C178.679 9.09075 173.749 10.3507 160.859 12.6207C151.239 14.3107 139.309 17.0607 134.359 18.7207C129.409 20.3907 121.089 23.9407 115.859 26.6207C110.639 29.3107 102.539 34.0507 97.8589 37.1607C93.1789 40.2707 85.1389 46.2607 79.9889 50.4607C74.8289 54.6607 69.2089 59.1207 67.4889 60.3607C65.2789 61.9507 62.9589 62.6107 59.6089 62.6107C56.0189 62.6007 54.1289 61.9907 51.8589 60.1007C49.8989 58.4607 48.6489 56.3007 48.2389 53.8507C47.8989 51.7907 48.0989 48.5307 48.6989 46.6007C49.2989 44.6707 52.1589 40.4307 55.0689 37.1607C57.9789 33.8907 63.7289 28.7207 67.8589 25.6607C71.9789 22.5907 78.9589 18.2107 83.3589 15.9107C87.7589 13.6107 94.5089 10.5407 98.3589 9.08074C102.209 7.63074 109.639 5.36074 114.859 4.03074Z" fill="#FAFBF6"/>
<path d="M201.599 33.1707C203.669 30.4608 207.379 27.1607 209.859 25.8307C213.699 23.7707 215.309 23.4908 220.859 23.9208C224.589 24.2108 229.699 25.4707 232.859 26.8707C235.879 28.2107 241.059 31.3607 244.359 33.8507C247.659 36.3507 252.369 40.8007 254.839 43.7407C257.299 46.6907 261.199 52.7007 263.499 57.1007C265.799 61.5007 268.919 68.9307 270.449 73.6007C273.029 81.5407 273.239 83.4907 273.619 103.101C274.009 122.761 273.859 124.931 271.389 137.101C269.739 145.231 264.839 161.721 258.319 181.101C250.209 205.191 247.879 213.331 247.849 217.601C247.829 221.741 248.319 223.661 249.839 225.351C250.949 226.591 252.869 227.871 254.109 228.191C255.429 228.541 258.009 227.971 260.359 226.811C262.559 225.721 267.289 221.721 270.859 217.911C274.429 214.111 279.209 207.641 281.459 203.551C283.719 199.451 287.189 192.051 289.169 187.101C291.149 182.151 294.379 172.931 296.349 166.601C298.309 160.281 300.359 154.541 300.889 153.851C301.419 153.161 302.309 152.831 302.859 153.101C303.409 153.371 303.859 156.411 303.869 159.851C303.869 163.291 303.139 170.371 302.249 175.601C301.359 180.831 299.389 188.931 297.879 193.601C296.359 198.281 292.549 207.281 289.399 213.601C286.249 219.931 281.129 228.881 278.019 233.511C274.909 238.131 268.539 245.961 263.859 250.901C259.179 255.851 251.759 262.781 247.359 266.301C242.959 269.831 235.759 274.891 231.359 277.551C226.959 280.211 219.989 283.811 215.859 285.561C211.739 287.301 205.659 289.371 202.359 290.151C199.059 290.931 194.449 291.581 192.109 291.591C189.769 291.591 186.059 290.701 183.859 289.601C181.659 288.501 179.219 286.591 178.429 285.351C177.649 284.111 176.709 281.531 176.339 279.601C175.939 277.471 176.319 273.561 177.319 269.601C178.229 266.031 180.679 259.501 182.769 255.101C184.859 250.701 190.719 239.901 195.789 231.101C200.859 222.301 210.049 204.981 216.219 192.601C223.349 178.321 229.019 165.351 231.759 157.101C234.139 149.951 236.919 140.281 237.959 135.601C238.989 130.931 240.119 123.501 240.469 119.101C240.849 114.421 240.639 108.721 239.989 105.351C239.239 101.541 237.849 98.4207 235.859 96.1007C234.059 94.0007 231.559 92.3507 229.609 91.9607C227.259 91.5007 225.389 91.8907 222.859 93.3907C220.929 94.5307 217.919 97.8507 216.149 100.781C214.389 103.711 211.389 110.151 209.489 115.101C207.589 120.051 203.719 132.201 200.879 142.101C198.049 152.001 193.979 165.731 191.839 172.601C189.699 179.481 186.319 189.151 184.319 194.101C182.329 199.051 178.599 206.641 176.029 210.961C173.429 215.341 168.699 221.331 165.359 224.481C162.059 227.591 157.339 231.131 154.859 232.351C151.519 234.001 148.559 234.571 143.359 234.581C138.019 234.591 135.529 234.101 132.859 232.491C130.929 231.341 128.089 229.201 126.529 227.751C124.969 226.291 122.179 222.401 120.319 219.101C118.459 215.801 116.009 209.501 114.879 205.101C113.739 200.701 112.389 193.281 111.879 188.601C111.359 183.931 110.459 171.331 109.879 160.601C109.299 149.871 108.339 137.051 107.749 132.101C107.149 127.151 105.919 121.561 105.009 119.681C104.099 117.801 102.459 115.631 101.359 114.861C99.9689 113.891 98.1389 113.671 95.3589 114.151C92.3589 114.671 90.0989 116.131 86.3189 119.971C83.5489 122.791 79.6389 127.801 77.6389 131.101C75.6389 134.401 72.6489 141.151 70.9989 146.101C69.2889 151.231 67.4789 159.621 66.7889 165.601C66.1289 171.371 65.8589 180.151 66.1789 185.101C66.5089 190.051 67.4489 197.251 68.2689 201.101C69.0889 204.951 70.8689 211.251 72.2089 215.101C73.5489 218.951 76.9689 227.281 79.8089 233.601C82.6389 239.931 85.6289 247.351 86.4389 250.101C87.6189 254.091 87.6989 256.111 86.8089 260.101C86.1989 262.851 85.3489 265.781 84.9189 266.601C84.4789 267.431 82.4889 268.891 80.4889 269.851C78.4989 270.811 75.6189 271.611 74.1089 271.621C72.5989 271.631 69.3289 270.921 66.8589 270.051C64.3889 269.171 59.8889 266.811 56.8589 264.811C53.8289 262.811 47.3089 257.111 42.3589 252.131C37.4089 247.161 30.5989 239.041 27.2289 234.091C23.8589 229.151 19.0589 221.051 16.5589 216.101C14.0589 211.151 10.8389 203.951 9.38891 200.101C7.93891 196.251 5.36892 188.151 3.67892 182.101C0.858923 172.041 0.55892 169.471 0.12892 152.101C-0.18108 139.501 0.0689102 131.081 0.86891 127.101C1.51891 123.801 3.15892 117.281 4.49892 112.601C5.82892 107.921 9.04891 99.7008 11.6389 94.3108C14.4189 88.5608 17.0789 84.3307 18.1089 84.0608C19.0689 83.8108 20.7589 83.8307 21.8589 84.1007C22.9589 84.3807 24.1089 85.3907 24.4089 86.3507C24.7189 87.3107 24.4489 93.0507 23.8189 99.1007C22.8889 108.021 22.9189 110.841 24.0189 114.001C24.7489 116.151 26.4789 118.781 27.8589 119.841C29.7989 121.341 31.1389 121.601 33.8589 121.021C35.8289 120.601 39.2989 118.481 41.7789 116.191C44.2089 113.941 51.3689 105.581 57.6789 97.6007C63.9989 89.6307 73.7089 78.5707 79.2589 73.0307C84.8189 67.4907 92.2889 60.8008 95.8589 58.1707C99.4289 55.5407 105.289 51.9007 108.859 50.1007C112.429 48.2907 116.929 46.7207 118.859 46.6007C120.789 46.4907 124.159 46.4607 126.359 46.5407C129.609 46.6507 130.999 47.3807 133.739 50.3907C135.599 52.4307 137.829 55.4507 138.699 57.1007C140.029 59.6307 140.369 66.4607 140.879 100.601C141.449 139.261 141.579 141.331 143.649 146.101C144.849 148.851 146.839 152.081 148.089 153.281C149.339 154.471 151.479 155.741 152.859 156.081C154.599 156.521 156.419 156.001 158.859 154.361C160.789 153.071 164.049 149.781 166.109 147.051C168.169 144.331 171.849 137.371 174.289 131.601C176.719 125.831 179.869 117.051 181.279 112.101C182.699 107.151 185.179 94.3307 186.809 83.6007C188.439 72.8807 190.649 60.7307 191.719 56.6007C192.799 52.4807 194.609 46.6307 195.759 43.6007C196.909 40.5807 199.539 35.8807 201.599 33.1707Z" fill="#FAFBF6"/>
<path d="M20.1089 52.6107C23.1989 53.4207 24.5189 53.2507 27.6089 51.6407C29.6689 50.5707 31.6389 49.6707 31.9889 49.6407C32.3289 49.6207 32.4289 50.3907 32.1889 51.3507C31.9589 52.3107 31.4889 54.6807 31.1489 56.6007C30.7189 59.0107 31.0389 60.9607 32.1889 62.8507C33.1089 64.3607 33.8589 65.8307 33.8589 66.1007C33.8589 66.3807 31.9489 66.3307 29.6089 66.0007C26.7989 65.6107 23.9989 65.9508 21.3589 67.0107C19.1589 67.8907 17.2489 68.3807 17.1089 68.1007C16.9689 67.8307 17.3089 66.2507 17.8589 64.6007C18.6489 62.2407 18.4389 60.5407 16.8589 56.6007C15.7589 53.8507 15.1989 51.6007 15.6089 51.6107C16.0189 51.6107 18.0489 52.0607 20.1089 52.6107Z" fill="#FAFBF6"/>
</svg>
