<svg width="1442" height="292" viewBox="0 0 1442 292" fill="none" xmlns="http://www.w3.org/2000/svg">
<path d="M209.859 25.8312C213.699 23.7713 215.309 23.4911 220.859 23.9211C224.589 24.2111 229.699 25.4713 232.859 26.8712C235.879 28.2114 241.06 31.3609 244.359 33.8507C247.659 36.3508 252.369 40.8014 254.839 43.7414C257.299 46.6914 261.199 52.7009 263.499 57.1007C265.799 61.5007 268.919 68.9307 270.449 73.6007C273.029 81.5407 273.239 83.4909 273.619 103.101C274.009 122.761 273.859 124.931 271.389 137.101C269.739 145.231 264.839 161.721 258.319 181.101C250.209 205.19 247.879 213.331 247.849 217.601C247.829 221.741 248.319 223.661 249.839 225.351C250.949 226.591 252.869 227.871 254.109 228.191C255.429 228.54 258.01 227.971 260.359 226.811C262.56 225.72 267.29 221.721 270.859 217.911C274.429 214.111 279.209 207.641 281.459 203.551C283.719 199.451 287.189 192.051 289.169 187.101C291.149 182.151 294.379 172.931 296.349 166.601C298.309 160.281 300.359 154.541 300.889 153.851C301.419 153.161 302.309 152.831 302.859 153.101C303.409 153.372 303.859 156.411 303.869 159.851C303.869 163.291 303.139 170.371 302.249 175.601C301.359 180.831 299.389 188.931 297.879 193.601C296.359 198.281 292.549 207.281 289.399 213.601C286.249 219.931 281.129 228.881 278.019 233.511C274.909 238.131 268.539 245.961 263.859 250.901C259.179 255.85 251.759 262.781 247.359 266.301C242.959 269.831 235.759 274.891 231.359 277.551C226.96 280.211 219.989 283.811 215.859 285.561C211.74 287.301 205.659 289.37 202.359 290.151C199.06 290.93 194.449 291.581 192.109 291.591C189.769 291.591 186.059 290.701 183.859 289.601C181.659 288.501 179.219 286.591 178.429 285.351C177.649 284.111 176.709 281.531 176.339 279.601C175.939 277.471 176.319 273.561 177.319 269.601C178.229 266.031 180.679 259.501 182.769 255.101C184.859 250.701 190.719 239.901 195.789 231.101C200.859 222.301 210.049 204.981 216.219 192.601C223.349 178.321 229.019 165.351 231.759 157.101C234.139 149.951 236.919 140.281 237.959 135.601C238.989 130.931 240.119 123.501 240.469 119.101C240.849 114.421 240.639 108.721 239.989 105.351C239.239 101.541 237.849 98.4207 235.859 96.1007C234.059 94.0009 231.559 92.3513 229.609 91.9611C227.259 91.5011 225.389 91.891 222.859 93.3908C220.929 94.5307 217.919 97.8506 216.149 100.78C214.389 103.71 211.389 110.151 209.489 115.101C207.589 120.051 203.719 132.201 200.879 142.101C198.049 152.001 193.979 165.731 191.839 172.601C189.699 179.481 186.319 189.151 184.319 194.101C182.329 199.051 178.599 206.641 176.029 210.961C173.429 215.341 168.699 221.331 165.359 224.481C162.06 227.59 157.339 231.131 154.859 232.351C151.519 234.001 148.559 234.571 143.359 234.581C138.02 234.591 135.529 234.101 132.859 232.491C130.929 231.341 128.089 229.201 126.529 227.751C124.969 226.291 122.179 222.401 120.319 219.101C118.459 215.801 116.009 209.501 114.879 205.101C113.739 200.701 112.389 193.281 111.879 188.601C111.359 183.931 110.459 171.331 109.879 160.601C109.299 149.871 108.339 137.051 107.749 132.101C107.149 127.151 105.919 121.561 105.009 119.681C104.099 117.801 102.459 115.631 101.359 114.861C99.9694 113.891 98.1391 113.671 95.3593 114.151C92.3594 114.671 90.0992 116.131 86.3193 119.971C83.5493 122.791 79.6386 127.801 77.6386 131.101C75.6387 134.401 72.649 141.151 70.999 146.101C69.289 151.231 67.479 159.621 66.789 165.601C66.129 171.371 65.8587 180.151 66.1787 185.101C66.5087 190.051 67.4485 197.251 68.2685 201.101C69.0885 204.951 70.869 211.251 72.2089 215.101C73.5489 218.951 76.9686 227.281 79.8086 233.601C82.6385 239.931 85.6283 247.351 86.4384 250.101C87.6184 254.091 87.6985 256.111 86.8086 260.101C86.1986 262.851 85.3489 265.781 84.9189 266.601C84.4789 267.431 82.4891 268.891 80.4892 269.851C78.4994 270.811 75.6195 271.611 74.1093 271.621C72.5994 271.631 69.3293 270.921 66.8593 270.051C64.3894 269.171 59.8893 266.811 56.8593 264.811C53.8294 262.811 47.3093 257.111 42.3593 252.131C37.4093 247.161 30.5985 239.041 27.2285 234.091C23.8585 229.151 19.0585 221.051 16.5586 216.101C14.0586 211.151 10.8386 203.951 9.38864 200.101C7.93862 196.251 5.36864 188.151 3.67868 182.101C0.858727 172.041 0.558868 169.471 0.128871 152.101C-0.181123 139.501 0.0691086 131.081 0.869105 127.101C1.51913 123.801 3.15901 117.281 4.49899 112.601C5.82902 107.921 9.04867 99.7006 11.6386 94.3107C14.4186 88.5607 17.0793 84.3307 18.1093 84.0607C19.0694 83.8108 20.7595 83.8308 21.8593 84.1007C22.9592 84.3809 24.1091 85.3909 24.4091 86.3507C24.7191 87.3107 24.4493 93.0508 23.8193 99.1007C22.8893 108.021 22.9185 110.841 24.0185 114.001C24.7485 116.151 26.4794 118.781 27.8593 119.841C29.7992 121.341 31.1395 121.601 33.8593 121.021C35.8294 120.6 39.2995 118.48 41.7793 116.191C44.2096 113.94 51.369 105.58 57.6787 97.6007C63.9987 89.6307 73.7088 78.5704 79.2588 73.0304C84.8187 67.4905 92.2894 60.801 95.8593 58.1711C99.4294 55.5411 105.289 51.9007 108.859 50.1007C112.429 48.2908 116.929 46.7207 118.859 46.6007C120.789 46.4908 124.16 46.4612 126.359 46.5412C129.609 46.6512 130.999 47.3809 133.739 50.3908C135.599 52.4308 137.829 55.4508 138.699 57.1007C140.029 59.6307 140.369 66.4609 140.879 100.601C141.449 139.261 141.579 141.331 143.649 146.101C144.849 148.851 146.839 152.08 148.089 153.28C149.339 154.47 151.479 155.741 152.859 156.081C154.599 156.521 156.42 156 158.859 154.361C160.789 153.07 164.05 149.781 166.109 147.051C168.169 144.331 171.849 137.371 174.289 131.601C176.719 125.831 179.869 117.051 181.279 112.101C182.699 107.151 185.179 94.3306 186.809 83.6007C188.439 72.8808 190.649 60.7307 191.719 56.6007C192.799 52.4807 194.609 46.6307 195.759 43.6007C196.909 40.5808 199.539 35.8811 201.599 33.1711C203.669 30.4611 207.379 27.1612 209.859 25.8312ZM521.859 96.6007V116.101C521.859 127.791 522.239 135.501 522.799 135.351C523.319 135.211 526.579 131.481 530.049 127.051C533.519 122.631 540.189 113.961 553.359 96.6007H566.109C573.119 96.6008 579.049 96.9408 579.289 97.3507C579.519 97.7607 577.309 101.251 574.369 105.101C571.429 108.951 564.029 118.401 557.929 126.101C551.829 133.8 547.07 140.66 547.349 141.351C547.629 142.041 555.369 153.961 564.539 167.851C573.708 181.74 581.248 193.779 581.289 194.601C581.349 195.841 579.209 196.151 556.359 196.711L543.859 178.051C536.98 167.781 530.91 159.021 530.359 158.57C529.769 158.09 527.919 159.461 522.359 166.051L521.359 196.101H498.359L498.099 146.351L497.839 96.6007H521.859ZM899.869 96.6105L899.369 196.111L876.869 196.611V96.6105H899.869ZM954.589 96.6105C965.428 96.6105 965.889 96.691 966.478 98.8605C966.828 100.09 974.719 121.131 984.019 145.611C993.328 170.079 1001.38 191.118 1001.91 192.361C1002.43 193.59 1002.64 195.06 1002.37 195.611C1002.08 196.18 997.299 196.601 991.119 196.591C985.2 196.581 979.82 196.251 979.159 195.841C978.499 195.441 976.459 191.061 971.289 177.111H935.589L928.239 196.111L904.869 196.611L905.489 194.361C905.831 193.116 913.71 171.177 922.999 145.611C932.709 118.891 940.629 98.5705 941.609 97.8605C942.73 97.0308 947.15 96.6105 954.589 96.6105ZM372.859 96.6007L385.609 122.111C392.619 136.141 398.589 147.621 398.859 147.621C399.135 147.609 404.769 136.129 423.359 96.6105L448.859 96.6007V196.601L426.359 196.101L425.749 139.101L406.359 177.101L390.359 177.671L380.859 158.551C375.63 148.043 371.021 139.244 370.609 139.021C370.199 138.791 369.829 151.311 369.799 166.851C369.769 182.39 369.549 195.439 369.299 195.851C369.059 196.261 363.909 196.601 346.859 196.601V96.6007H372.859ZM484.859 96.6007V196.601H461.859V96.6007H484.859ZM622.049 114.82C626.839 124.88 632.459 136.63 638.359 148.78L663.859 96.6007H688.859V196.601L666.359 196.101L665.709 138.101L646.359 177.101L630.359 177.671L610.359 138.101L609.859 196.601L588.359 196.101L587.709 190.601C587.349 187.58 587.009 168.68 586.959 148.601C586.899 128.531 587.139 108.611 587.489 104.351L588.129 96.6007L613.359 96.5509L622.049 114.82ZM806.228 96.8507C827.828 97.2707 830.989 97.5511 836.359 99.5011C839.659 100.701 844.569 103.131 847.279 104.891C849.979 106.661 853.949 110.131 856.099 112.601C858.239 115.081 861.089 119.351 862.429 122.101C863.769 124.851 865.599 130.701 866.499 135.101C867.829 141.661 867.929 144.451 867.039 150.601C866.449 154.731 865.158 160.581 864.188 163.601C863.208 166.631 860.569 171.801 858.319 175.101C856.069 178.401 852.009 182.77 849.289 184.82C846.579 186.87 841.209 190.131 830.359 195.611L781.859 195.601L781.978 145.991L782.089 96.3712L806.228 96.8507ZM770.859 96.6007L770.359 116.101L724.859 116.601V135.601H765.859L765.359 155.101L724.859 155.601V174.601H770.859V195.601H700.859V96.6007H770.859ZM805.359 174.101C816.209 174.541 821.609 174.211 824.359 173.651C827.109 173.091 831.159 171.371 833.359 169.831C835.849 168.081 838.41 164.951 840.12 161.561C842.65 156.561 842.88 155.16 842.85 145.101C842.82 136.551 842.4 133.211 840.96 130.101C839.95 127.901 837.819 124.891 836.239 123.401C834.649 121.921 831.559 119.941 829.359 119.001C826.869 117.941 821.539 117.121 815.229 116.821L805.1 116.341L805.359 174.101ZM953.79 125.101C953.39 124.551 952.539 125.671 951.899 127.601C951.259 129.521 948.74 136.841 946.3 143.851L941.859 156.601C958.909 156.601 963.85 156.261 963.85 155.851C963.839 155.438 961.729 148.569 959.17 140.601C956.61 132.621 954.18 125.651 953.79 125.101ZM31.9892 49.6408C32.3289 49.6213 32.4283 50.3911 32.1884 51.3507C31.9584 52.3107 31.4884 54.6808 31.1484 56.6007C30.7184 59.0106 31.0386 60.9608 32.1884 62.8507C33.1083 64.3604 33.859 65.8303 33.8593 66.1007C33.8593 66.3807 31.9491 66.3311 29.6093 66.0011C26.7995 65.6112 23.9992 65.951 21.3593 67.0109C19.1595 67.8908 17.2496 68.3806 17.1093 68.1007C16.9693 67.8307 17.3093 66.2507 17.8593 64.6007C18.6492 62.2409 18.4393 60.5406 16.8593 56.6007C15.7593 53.8507 15.1993 51.6005 15.6093 51.6105C16.0204 51.6108 18.0501 52.0607 20.1093 52.6105C23.1991 53.4204 24.5195 53.2507 27.6093 51.6408C29.6692 50.5709 31.6392 49.6708 31.9892 49.6408ZM131.859 0.671053C135.98 0.14109 146.56 -0.129291 155.359 0.0607019C166.299 0.300707 172.469 0.860755 174.859 1.85074C176.789 2.64075 178.909 3.92137 179.589 4.70133C180.569 5.81113 180.569 6.46073 179.589 7.82047C178.679 9.09045 173.749 10.3513 160.859 12.6212C151.24 14.3112 139.31 17.0608 134.359 18.7209C129.409 20.3908 121.089 23.9413 115.859 26.6212C110.639 29.3112 102.539 34.0513 97.8593 37.1613C93.1794 40.2713 85.1392 46.2611 79.9892 50.4611C74.8296 54.6608 69.2097 59.1201 67.4892 60.3605C65.2793 61.9504 62.9591 62.6104 59.6093 62.6105C56.0194 62.6005 54.1293 61.9906 51.8593 60.1007C49.8993 58.4607 48.6492 56.3007 48.2392 53.8507C47.8992 51.7907 48.0992 48.5307 48.6992 46.6007C49.2993 44.6706 52.1594 40.4312 55.0693 37.1613C57.9793 33.8913 63.7293 28.7213 67.8593 25.6613C71.9794 22.5913 78.9594 18.2113 83.3593 15.9113C87.7593 13.6113 94.5094 10.5412 98.3593 9.08121C102.209 7.6312 109.639 5.36039 114.859 4.03043C120.089 2.71046 127.729 1.19104 131.859 0.671053Z" fill="#FAFBF6"/>
<path d="M1415.02 140.728C1409.6 140.728 1404.95 139.649 1401.06 137.492C1397.16 135.335 1394.18 132.352 1392.11 128.545C1390.04 124.696 1389 120.254 1389 115.22C1389 110.144 1390.04 105.681 1392.11 101.831C1394.22 97.9396 1397.25 94.915 1401.18 92.7576C1405.12 90.5579 1409.79 89.458 1415.21 89.458C1420.66 89.458 1425.34 90.5367 1429.23 92.6941C1433.12 94.8515 1436.1 97.855 1438.18 101.704C1440.25 105.554 1441.29 109.996 1441.29 115.03C1441.29 120.063 1440.23 124.526 1438.11 128.418C1436.04 132.268 1433.04 135.292 1429.1 137.492C1425.21 139.649 1420.51 140.728 1415.02 140.728ZM1415.14 135.398C1419.41 135.398 1423.07 134.552 1426.12 132.86C1429.17 131.125 1431.49 128.735 1433.1 125.69C1434.75 122.644 1435.57 119.112 1435.57 115.093C1435.57 111.074 1434.75 107.542 1433.1 104.496C1431.49 101.451 1429.17 99.0817 1426.12 97.3896C1423.07 95.6552 1419.41 94.7881 1415.14 94.7881C1410.87 94.7881 1407.21 95.6552 1404.17 97.3896C1401.12 99.0817 1398.77 101.451 1397.12 104.496C1395.51 107.542 1394.71 111.074 1394.71 115.093C1394.71 119.112 1395.51 122.644 1397.12 125.69C1398.77 128.735 1401.12 131.125 1404.17 132.86C1407.21 134.552 1410.87 135.398 1415.14 135.398ZM1415.21 129.243C1410.93 129.243 1407.61 127.974 1405.24 125.436C1402.92 122.898 1401.75 119.45 1401.75 115.093C1401.75 110.524 1402.98 107.034 1405.43 104.623C1407.93 102.17 1411.21 100.943 1415.27 100.943C1418.95 100.943 1421.89 101.895 1424.09 103.798C1426.29 105.66 1427.6 108.155 1428.02 111.286H1419.9C1419.73 109.805 1419.22 108.642 1418.38 107.796C1417.57 106.95 1416.56 106.527 1415.33 106.527C1413.64 106.527 1412.35 107.267 1411.46 108.748C1410.57 110.228 1410.13 112.343 1410.13 115.093C1410.13 117.885 1410.57 120.021 1411.46 121.502C1412.35 122.94 1413.62 123.659 1415.27 123.659C1416.54 123.659 1417.57 123.236 1418.38 122.39C1419.22 121.502 1419.73 120.338 1419.9 118.9H1428.02C1427.56 121.988 1426.23 124.484 1424.03 126.388C1421.83 128.291 1418.89 129.243 1415.21 129.243Z" fill="white"/>
<path d="M1338.83 192C1330.88 192 1324.11 190.434 1318.52 187.304C1313.02 184.174 1308.84 179.944 1305.96 174.614C1303.08 169.199 1301.64 163.15 1301.64 156.466C1301.64 151.136 1302.45 146.144 1304.06 141.491C1305.66 136.753 1307.74 132.227 1310.27 127.912C1312.81 123.597 1315.48 119.494 1318.27 115.602C1318.44 115.433 1319.12 114.502 1320.3 112.81C1321.57 111.118 1323.09 109.003 1324.87 106.465C1326.73 103.927 1328.63 101.304 1330.58 98.5969C1332.61 95.8896 1334.51 93.436 1336.29 91.2363H1360.28V91.9978C1358.67 93.9437 1355.88 97.2855 1351.9 102.023C1347.92 106.677 1343.44 112.176 1338.45 118.521C1335.4 122.413 1333.03 125.501 1331.34 127.785C1329.73 130.07 1328.8 131.423 1328.55 131.846H1331.59C1333.03 130.662 1334.94 129.435 1337.31 128.166C1339.67 126.897 1342.8 126.262 1346.7 126.262C1352.11 126.262 1357.02 127.531 1361.42 130.07C1365.82 132.523 1369.29 136.076 1371.82 140.73C1374.45 145.383 1375.76 150.882 1375.76 157.227C1375.76 163.742 1374.32 169.664 1371.44 174.994C1368.57 180.24 1364.38 184.385 1358.88 187.431C1353.46 190.477 1346.78 192 1338.83 192ZM1339.08 176.771C1344.41 176.771 1348.6 175.121 1351.65 171.822C1354.78 168.437 1356.34 163.827 1356.34 157.989C1356.34 151.982 1354.78 147.371 1351.65 144.156C1348.52 140.857 1344.33 139.207 1339.08 139.207C1333.5 139.207 1329.1 140.983 1325.88 144.537C1322.75 148.006 1321.19 152.447 1321.19 157.862C1321.19 161.162 1321.82 164.25 1323.09 167.126C1324.45 170.003 1326.43 172.329 1329.06 174.106C1331.76 175.883 1335.11 176.771 1339.08 176.771Z" fill="white"/>
<path d="M1215.64 190.221V173.47C1222.66 168.14 1228.79 163.36 1234.04 159.129C1239.29 154.815 1243.77 150.88 1247.49 147.327C1253.08 142.082 1257.26 137.344 1260.06 133.114C1262.93 128.883 1264.37 124.442 1264.37 119.789C1264.37 115.558 1263.14 112.132 1260.69 109.509C1258.32 106.802 1254.85 105.448 1250.28 105.448C1245.12 105.448 1241.23 107.14 1238.61 110.524C1235.99 113.824 1234.67 118.223 1234.67 123.723H1215.64C1215.64 116.87 1216.95 110.863 1219.57 105.702C1222.2 100.541 1226.09 96.5647 1231.25 93.7728C1236.49 90.8963 1242.97 89.458 1250.66 89.458C1261.58 89.458 1270 92.2499 1275.92 97.8338C1281.93 103.333 1284.93 110.609 1284.93 119.662C1284.93 126.176 1283.24 132.183 1279.85 137.682C1276.47 143.097 1271.43 148.808 1264.75 154.815C1261.87 157.437 1258.66 160.145 1255.11 162.937C1251.64 165.644 1248.17 168.14 1244.7 170.424V173.47H1288.23V190.221H1215.64Z" fill="white"/>
<path d="M1165.68 191.998C1152.65 191.998 1142.92 187.472 1136.49 178.419C1130.06 169.366 1126.85 156.803 1126.85 140.728C1126.85 124.653 1130.06 112.09 1136.49 103.037C1142.92 93.9843 1152.65 89.458 1165.68 89.458C1178.79 89.458 1188.52 93.9843 1194.87 103.037C1201.3 112.09 1204.51 124.653 1204.51 140.728C1204.51 156.803 1201.3 169.366 1194.87 178.419C1188.52 187.472 1178.79 191.998 1165.68 191.998ZM1165.68 175.246C1171.69 175.246 1176.09 172.37 1178.88 166.617C1181.76 160.864 1183.19 152.234 1183.19 140.728C1183.19 129.222 1181.76 120.592 1178.88 114.839C1176.09 109.086 1171.69 106.21 1165.68 106.21C1159.67 106.21 1155.23 109.086 1152.36 114.839C1149.56 120.592 1148.17 129.222 1148.17 140.728C1148.17 152.234 1149.56 160.864 1152.36 166.617C1155.23 172.37 1159.67 175.246 1165.68 175.246Z" fill="white"/>
<path d="M1043.12 190.221V173.47C1050.15 168.14 1056.28 163.36 1061.53 159.129C1066.77 154.815 1071.26 150.88 1074.98 147.327C1080.56 142.082 1084.75 137.344 1087.54 133.114C1090.42 128.883 1091.86 124.442 1091.86 119.789C1091.86 115.558 1090.63 112.132 1088.18 109.509C1085.81 106.802 1082.34 105.448 1077.77 105.448C1072.61 105.448 1068.72 107.14 1066.09 110.524C1063.47 113.824 1062.16 118.223 1062.16 123.723H1043.12C1043.12 116.87 1044.44 110.863 1047.06 105.702C1049.68 100.541 1053.57 96.5647 1058.73 93.7728C1063.98 90.8963 1070.45 89.458 1078.15 89.458C1089.06 89.458 1097.48 92.2499 1103.41 97.8338C1109.41 103.333 1112.42 110.609 1112.42 119.662C1112.42 126.176 1110.72 132.183 1107.34 137.682C1103.96 143.097 1098.92 148.808 1092.24 154.815C1089.36 157.437 1086.15 160.145 1082.59 162.937C1079.12 165.644 1075.66 168.14 1072.19 170.424V173.47H1115.72V190.221H1043.12Z" fill="white"/>
</svg>
